<svg width="21" height="20" viewBox="0 0 21 20" fill="none" xmlns="http://www.w3.org/2000/svg">
<path d="M5.60417 10.125C5.96528 9.20829 6.39945 8.32635 6.90667 7.47913C7.41389 6.6319 7.98667 5.83329 8.625 5.08329L7.54167 4.85413C7.26389 4.79857 6.99306 4.81246 6.72917 4.89579C6.46528 4.97913 6.23611 5.11801 6.04167 5.31246L3.41667 7.93746C3.20833 8.14579 3.12833 8.39579 3.17667 8.68746C3.225 8.97913 3.38833 9.18051 3.66667 9.29163L5.60417 10.125ZM17.8542 1.99996C16.3819 1.93051 14.9828 2.21524 13.6567 2.85413C12.3306 3.49301 11.1464 4.33329 10.1042 5.37496C9.4375 6.04162 8.85056 6.76385 8.34333 7.54163C7.83611 8.3194 7.39556 9.13885 7.02167 9.99996C6.95222 10.1805 6.9175 10.3647 6.9175 10.5525C6.9175 10.7402 6.98694 10.9033 7.12583 11.0416L9.73 13.6458C9.86889 13.7847 10.0322 13.8541 10.22 13.8541C10.4078 13.8541 10.5917 13.8194 10.7717 13.75C11.6328 13.375 12.4522 12.9338 13.23 12.4266C14.0078 11.9194 14.73 11.3327 15.3967 10.6666C16.4383 9.62496 17.2786 8.44107 17.9175 7.11496C18.5564 5.78885 18.8408 4.3894 18.7708 2.91663C18.7708 2.80551 18.7431 2.6944 18.6875 2.58329C18.6319 2.47218 18.5625 2.37496 18.4792 2.29163C18.3958 2.20829 18.2986 2.13885 18.1875 2.08329C18.0764 2.02774 17.9653 1.99996 17.8542 1.99996ZM12.5625 8.20829C12.2431 7.88885 12.0833 7.49663 12.0833 7.03162C12.0833 6.56662 12.2431 6.17413 12.5625 5.85413C12.8819 5.53413 13.2744 5.3744 13.74 5.37496C14.2056 5.37551 14.5978 5.53524 14.9167 5.85413C15.2356 6.17301 15.3953 6.56551 15.3958 7.03162C15.3964 7.49774 15.2367 7.88996 14.9167 8.20829C14.5967 8.52663 14.2044 8.68635 13.74 8.68746C13.2756 8.68857 12.8831 8.52885 12.5625 8.20829ZM10.6458 15.1666L11.4792 17.1041C11.5903 17.3819 11.7917 17.5486 12.0833 17.6041C12.375 17.6597 12.625 17.5833 12.8333 17.375L15.4583 14.75C15.6528 14.5555 15.7917 14.323 15.875 14.0525C15.9583 13.7819 15.9722 13.5075 15.9167 13.2291L15.7083 12.1458C14.9444 12.7847 14.1425 13.3577 13.3025 13.865C12.4625 14.3722 11.5769 14.8061 10.6458 15.1666ZM3.875 13.375C4.36111 12.8888 4.95139 12.6422 5.64583 12.635C6.34028 12.6277 6.93056 12.8675 7.41667 13.3541C7.90278 13.8408 8.14583 14.4311 8.14583 15.125C8.14583 15.8188 7.90278 16.4091 7.41667 16.8958C6.75 17.5625 5.96167 17.9583 5.05167 18.0833C4.14167 18.2083 3.22861 18.3333 2.3125 18.4583C2.4375 17.5416 2.56611 16.6286 2.69833 15.7191C2.83056 14.8097 3.22278 14.0283 3.875 13.375Z" fill="white"/>
</svg>
