<svg width="40" height="40" viewBox="0 0 40 40" fill="none" xmlns="http://www.w3.org/2000/svg">
<path d="M27.7778 4.44434H12.2222C7.92669 4.44434 4.44446 7.92656 4.44446 12.2221V27.7777C4.44446 32.0732 7.92669 35.5554 12.2222 35.5554H27.7778C32.0733 35.5554 35.5556 32.0732 35.5556 27.7777V12.2221C35.5556 7.92656 32.0733 4.44434 27.7778 4.44434Z" stroke="#A1AFBA" stroke-width="3.88889" stroke-linecap="round" stroke-linejoin="round"/>
<path d="M28.5551 11.4443H28.5707M26.2218 19.0199C26.4138 20.3145 26.1926 21.6367 25.5898 22.7984C24.9871 23.96 24.0333 24.9021 22.8643 25.4905C21.6953 26.0789 20.3705 26.2837 19.0783 26.0758C17.7862 25.8679 16.5925 25.2578 15.6671 24.3324C14.7417 23.4069 14.1316 22.2132 13.9237 20.9211C13.7157 19.629 13.9206 18.3042 14.509 17.1351C15.0974 15.9661 16.0394 15.0124 17.2011 14.4096C18.3628 13.8068 19.685 13.5857 20.9796 13.7777C22.3001 13.9735 23.5227 14.5888 24.4666 15.5328C25.4106 16.4768 26.026 17.6993 26.2218 19.0199Z" stroke="#A1AFBA" stroke-width="3.88889" stroke-linecap="round" stroke-linejoin="round"/>
</svg>
