<svg width="40" height="40" viewBox="0 0 40 40" fill="none" xmlns="http://www.w3.org/2000/svg">
<path d="M36.25 5.19687C36.2401 4.16901 35.8255 3.18645 35.096 2.46224C34.3666 1.73803 33.381 1.33054 32.3531 1.32812L7.62812 1.25C6.60127 1.2502 5.61639 1.65757 4.88941 2.38279C4.16244 3.10801 3.75269 4.0919 3.75 5.11875V30.625C3.75 32.7578 5.49062 34.375 7.62812 34.375H28.75L27.7344 30.9375L36.25 38.75V5.19687ZM25.3633 25.7664C25.3633 25.7664 24.682 24.9547 24.1133 24.257C26.593 23.5586 27.5391 22.0312 27.5391 22.0312C26.858 22.483 26.1281 22.8565 25.3633 23.1445C24.4802 23.5112 23.5607 23.7833 22.6203 23.9563C20.9999 24.2539 19.3384 24.2475 17.7203 23.9375C16.7686 23.7607 15.837 23.4885 14.9398 23.125C14.4652 22.9432 14.0037 22.7289 13.5586 22.4836C13.5016 22.4461 13.4453 22.4273 13.3883 22.3891C13.35 22.3703 13.3312 22.3516 13.3102 22.3516C12.9695 22.1625 12.7805 22.0305 12.7805 22.0305C12.7805 22.0305 13.6883 23.5219 16.0914 24.2383C15.5234 24.9555 14.8234 25.7859 14.8234 25.7859C10.643 25.6539 9.05391 22.9367 9.05391 22.9367C9.05391 16.9164 11.7781 12.0289 11.7781 12.0289C14.5023 10.0094 17.075 10.0664 17.075 10.0664L17.2641 10.293C13.8586 11.2555 12.3078 12.7461 12.3078 12.7461C12.3078 12.7461 12.7234 12.5195 13.4234 12.2172C15.4477 11.3305 17.0563 11.1039 17.7203 11.0289C17.8263 11.0069 17.934 10.9941 18.0422 10.9906C19.3099 10.8261 20.5926 10.8135 21.8633 10.9531C23.8584 11.1823 25.7913 11.7909 27.5578 12.7461C27.5578 12.7461 26.0633 11.3281 22.8469 10.3672L23.1117 10.0656C23.1117 10.0656 25.7031 10.0086 28.4094 12.0312C28.4094 12.0312 31.1336 16.9187 31.1336 22.9391C31.1336 22.9172 29.5437 25.6344 25.3633 25.7664Z" fill="#A1AFBA"/>
<path d="M16.5668 17.0312C15.4887 17.0312 14.6371 17.9563 14.6371 19.107C14.6371 20.2578 15.5075 21.1828 16.5668 21.1828C17.645 21.1828 18.4965 20.2586 18.4965 19.107C18.5161 17.9539 17.645 17.0312 16.5668 17.0312ZM23.4715 17.0312C22.3934 17.0312 21.5418 17.9563 21.5418 19.107C21.5418 20.2578 22.4121 21.1828 23.4715 21.1828C24.5504 21.1828 25.4012 20.2586 25.4012 19.107C25.4012 17.9555 24.5317 17.0312 23.4715 17.0312Z" fill="#A1AFBA"/>
</svg>
