<svg width="63" height="70" viewBox="0 0 63 70" fill="none" xmlns="http://www.w3.org/2000/svg">
<path d="M14.2345 21.5488C16.3654 21.5488 18.4486 20.9169 20.2204 19.733C21.9922 18.5491 23.3732 16.8664 24.1887 14.8976C25.0042 12.9289 25.2176 10.7625 24.8019 8.67244C24.3861 6.58241 23.36 4.66259 21.8531 3.15576C20.3463 1.64893 18.4265 0.622766 16.3364 0.207032C14.2464 -0.208701 12.08 0.00466842 10.1113 0.820159C8.1425 1.63565 6.45976 3.01663 5.27585 4.78848C4.09194 6.56032 3.46004 8.64345 3.46004 10.7744C3.46387 13.6308 4.60026 16.3691 6.62002 18.3889C8.63979 20.4086 11.3781 21.545 14.2345 21.5488Z" fill="#F8F6FD"/>
<path d="M17.7257 64.0914C20.9889 60.8282 20.9889 55.5375 17.7257 52.2743C14.4625 49.0111 9.17177 49.0111 5.90856 52.2743C2.64535 55.5375 2.64535 60.8282 5.90856 64.0914C9.17177 67.3546 14.4625 67.3546 17.7257 64.0914Z" fill="#F8F6FD"/>
<path d="M30.9252 30.7882L22.6923 20.7886C20.6097 22.553 18.0271 23.6214 15.3067 23.8442L13.0982 47.5581C15.5301 47.8556 17.7867 48.9775 19.4919 50.7368L29.9911 40.9327C28.8029 39.4513 28.2362 37.5664 28.4104 35.6754C28.5847 33.7843 29.4863 32.0348 30.9252 30.7955V30.7882Z" fill="#7AF0FF"/>
<path d="M48.3534 52.2429L39.6643 42.5619C38.4735 43.3232 37.0877 43.7236 35.6743 43.7146C34.2609 43.7056 32.8804 43.2876 31.6993 42.5112L20.9322 52.5977C21.9695 54.2754 22.521 56.208 22.5252 58.1804C22.523 58.8954 22.4502 59.6085 22.3079 60.3092H44.646C44.646 60.2513 44.646 60.1934 44.646 60.1355C44.6464 58.6284 44.9788 57.1399 45.6195 55.7758C46.2603 54.4116 47.1937 53.2055 48.3534 52.2429Z" fill="#7AF0FF"/>
<path d="M24.3575 19.1159L32.9379 29.5355C34.0263 29.0841 35.2076 28.9024 36.3814 29.0057C37.5551 29.1091 38.6865 29.4946 39.6792 30.1293L50.0047 18.8263C49.8011 18.1547 49.6962 17.4571 49.6933 16.7554C49.698 16.4673 49.7173 16.1797 49.7512 15.8937L27.3552 10.731V10.7744C27.3569 13.819 26.2968 16.7688 24.3575 19.1159Z" fill="#7AF0FF"/>
<path d="M35.7476 41.3599C36.74 41.3599 37.7102 41.0656 38.5354 40.5142C39.3606 39.9628 40.0037 39.1791 40.3835 38.2622C40.7633 37.3453 40.8627 36.3364 40.6691 35.363C40.4755 34.3896 39.9975 33.4955 39.2958 32.7938C38.594 32.092 37.6999 31.6141 36.7265 31.4205C35.7531 31.2268 34.7442 31.3262 33.8273 31.706C32.9104 32.0858 32.1267 32.729 31.5753 33.5542C31.0239 34.3793 30.7296 35.3495 30.7296 36.342C30.7296 37.6728 31.2583 38.9491 32.1994 39.8902C33.1404 40.8312 34.4167 41.3599 35.7476 41.3599Z" fill="#7AF0FF"/>
<path d="M43.1114 36.342C43.113 38.047 42.5188 39.699 41.4316 41.0123L50.3451 50.9468C51.7627 50.2339 53.3273 49.862 54.9141 49.8607C55.1675 49.8607 55.4209 49.8607 55.6382 49.9041V23.7935C53.8335 23.4931 52.2133 22.5106 51.1126 21.0493L41.4388 31.6861C42.5208 32.9963 43.1123 34.6427 43.1114 36.342Z" fill="#7AF0FF"/>
<path d="M56.8474 21.5488C59.4988 21.5488 61.6481 19.3995 61.6481 16.7481C61.6481 14.0968 59.4988 11.9474 56.8474 11.9474C54.1961 11.9474 52.0467 14.0968 52.0467 16.7481C52.0467 19.3995 54.1961 21.5488 56.8474 21.5488Z" fill="#F8F6FD"/>
<path d="M54.9141 52.2139C53.3454 52.2125 51.8114 52.6765 50.5064 53.5472C49.2014 54.4178 48.1841 55.6561 47.5831 57.1051C46.9821 58.5542 46.8244 60.149 47.1301 61.6877C47.4358 63.2264 48.1911 64.6399 49.3004 65.7492C50.4097 66.8585 51.8231 67.6137 53.3618 67.9194C54.9005 68.2251 56.4954 68.0675 57.9444 67.4665C59.3935 66.8655 60.6318 65.8481 61.5024 64.5432C62.3731 63.2382 62.8371 61.7042 62.8357 60.1355C62.8242 58.0381 61.986 56.0298 60.5029 54.5467C59.0198 53.0636 57.0115 52.2253 54.9141 52.2139Z" fill="#F8F6FD"/>
</svg>
