<svg width="71" height="71" viewBox="0 0 71 71" fill="none" xmlns="http://www.w3.org/2000/svg">
<path fill-rule="evenodd" clip-rule="evenodd" d="M14.0769 25.0557H15.0963V32.4288C11.1534 32.6456 8.06882 35.9059 8.06882 39.8546C8.06882 43.8063 11.1534 47.0667 15.0963 47.2834V54.6536H14.0769C13.5818 54.6624 13.1541 54.305 13.0721 53.8158L12.7939 52.316H12.7968C12.7265 51.9234 12.4336 51.6071 12.0469 51.5133C11.1857 51.2673 10.3567 50.9216 9.57743 50.4851C9.23763 50.2976 8.81875 50.3211 8.49943 50.5466L7.27498 51.4078C6.87366 51.6949 6.32589 51.6451 5.98019 51.2965L4.0146 49.3368C3.66308 48.9911 3.61621 48.4433 3.90036 48.042L4.76448 46.7882C4.99003 46.4689 5.01347 46.05 4.82306 45.7073C4.38953 44.9281 4.04383 44.0991 3.79779 43.2408C3.70405 42.8512 3.38768 42.5553 2.99516 42.4908L1.49534 42.2126C1.00321 42.1335 0.648763 41.7058 0.654613 41.2078V38.4719C0.648754 37.9768 1.0032 37.5491 1.49534 37.4671L2.99516 37.1888C3.38769 37.1215 3.70113 36.8256 3.79779 36.4389C4.04092 35.5807 4.38659 34.7516 4.82306 33.9724C5.01347 33.6297 4.99004 33.2108 4.76448 32.8915L3.90036 31.6787C3.63672 31.2803 3.68359 30.753 4.0146 30.4103L5.98019 28.4447C6.32585 28.0962 6.87363 28.0464 7.27498 28.3334L8.52876 29.1946C8.84513 29.4231 9.26695 29.4466 9.60968 29.2561C10.386 28.7992 11.2149 28.43 12.0762 28.1606C12.4658 28.0698 12.7617 27.7534 12.8261 27.358L13.1044 25.8582C13.1981 25.3953 13.6052 25.0615 14.0769 25.0557ZM53.2597 13.3556V58.1567C53.2655 58.851 52.9961 59.5188 52.5069 60.0139C52.0177 60.509 51.3527 60.7872 50.6585 60.7902H19.4555C18.7583 60.7873 18.0933 60.509 17.6041 60.0139C17.1149 59.5218 16.8425 58.851 16.8454 58.1567V19.7913H22.4112H22.4082C23.3368 19.7972 24.2274 19.4339 24.8835 18.7806C25.5426 18.1274 25.9117 17.2398 25.9117 16.3112V10.7484H50.6588C52.0942 10.7542 53.2571 11.9201 53.2601 13.3584L53.2597 13.3556ZM28.056 34.2946C28.056 34.9185 28.3049 35.5132 28.7473 35.9525C29.1896 36.389 29.7901 36.6321 30.4112 36.6263H39.7266C41.0125 36.6263 42.0583 35.5835 42.0583 34.2945V25.987C42.0701 24.8534 41.2703 23.875 40.1602 23.6611V21.4114C40.2129 20.0346 39.7032 18.6959 38.7482 17.7028C37.7904 16.7069 36.4721 16.1474 35.0953 16.1474C33.7157 16.1474 32.3974 16.7069 31.4425 17.7028C30.4846 18.6959 29.9749 20.0346 30.0276 21.4114V23.6611C28.9115 23.8574 28.0943 24.827 28.0943 25.9635L28.056 34.2946ZM22.3877 41.4714C22.3877 41.9548 22.7802 42.3502 23.2636 42.3502H29.3976C29.8839 42.3502 30.2764 41.9548 30.2764 41.4714C30.2764 40.9881 29.8839 40.5926 29.3976 40.5926H23.2636C22.7802 40.5985 22.3906 40.9881 22.3877 41.4714ZM22.3877 45.7395C22.3877 46.2228 22.7802 46.6154 23.2636 46.6154H38.8475C39.3308 46.6154 39.7263 46.2228 39.7263 45.7395C39.7263 45.2532 39.3308 44.8606 38.8475 44.8606H23.2636C22.7802 44.8665 22.3906 45.2561 22.3877 45.7395ZM22.3877 50.0046C22.3877 50.4909 22.7802 50.8834 23.2636 50.8834H33.4106C33.8266 50.8043 34.1254 50.444 34.1254 50.0193C34.1254 49.5975 33.8266 49.2371 33.4106 49.1581H23.2636C22.792 49.161 22.4082 49.533 22.3877 50.0046ZM26.8871 54.2755V54.2726C26.8871 53.7863 26.4946 53.3938 26.0083 53.3938H23.2635C22.7802 53.3938 22.3876 53.7863 22.3876 54.2726C22.3876 54.756 22.7801 55.1485 23.2635 55.1485H26.0229C26.2573 55.1485 26.4799 55.0577 26.644 54.8937C26.808 54.7296 26.9017 54.5041 26.9017 54.2726L26.8871 54.2755ZM38.9622 54.2755L38.9593 54.2726C38.9563 53.7893 38.5667 53.3996 38.0834 53.3938H29.3979C28.9146 53.3938 28.522 53.7863 28.522 54.2726C28.522 54.756 28.9146 55.1485 29.3979 55.1485H38.0984C38.5817 55.1456 38.9713 54.756 38.9772 54.2726L38.9622 54.2755ZM47.7062 50.0075L47.7032 50.0046C47.6886 49.5417 47.3136 49.1697 46.8508 49.158H36.8972C36.4139 49.158 36.0213 49.5505 36.0213 50.0368C36.0213 50.5202 36.4139 50.9127 36.8972 50.9127H46.8508C47.0881 50.9127 47.3136 50.816 47.4777 50.6461C47.6417 50.4733 47.7296 50.2419 47.7179 50.0046L47.7062 50.0075ZM47.7062 45.7395H47.7032C47.7032 45.2561 47.3166 44.8665 46.8332 44.8606H42.1696C41.6863 44.8606 41.2937 45.2532 41.2937 45.7395C41.2937 46.2228 41.6863 46.6154 42.1696 46.6154H46.8507C47.0821 46.6154 47.3048 46.5246 47.4659 46.3576C47.6299 46.1935 47.7207 45.9709 47.7178 45.7395L47.7062 45.7395ZM47.7062 41.4714H47.7032C47.7032 40.991 47.3166 40.5985 46.8332 40.5926H32.7199C32.2365 40.5926 31.844 40.9881 31.844 41.4714C31.844 41.9548 32.2365 42.3502 32.7199 42.3502H46.8512C47.0826 42.3502 47.3052 42.2565 47.4663 42.0925C47.6304 41.9255 47.7212 41.7029 47.7183 41.4714L47.7062 41.4714ZM29.805 34.2946V25.9871C29.805 25.6619 30.0658 25.4012 30.388 25.4012H39.7266C39.8789 25.4012 40.0283 25.4627 40.1396 25.5711C40.248 25.6824 40.3095 25.8318 40.3095 25.9871V34.2946C40.3095 34.6168 40.0488 34.8804 39.7266 34.8804H30.4112C30.253 34.8863 30.0978 34.8277 29.9835 34.7164C29.8693 34.6051 29.805 34.4527 29.805 34.2946ZM31.3722 30.7179L33.1035 32.66C33.4227 33.0174 33.9676 33.0496 34.325 32.7361L38.6604 28.9104C38.8361 28.7581 38.9416 28.5442 38.9562 28.3128C38.9738 28.0814 38.8947 27.8558 38.7424 27.6801C38.4231 27.3168 37.8694 27.2788 37.5062 27.5981L33.8152 30.8614L32.6611 29.549C32.3388 29.1887 31.7852 29.1623 31.4278 29.4846C31.0704 29.8068 31.0412 30.3605 31.3634 30.7178L31.3722 30.7179ZM38.3762 21.464C38.4172 20.5559 38.0891 19.6712 37.4622 19.0121C36.8353 18.356 35.9653 17.9839 35.0573 17.9839C34.1492 17.9839 33.2792 18.356 32.6523 19.0121C32.0254 19.6712 31.6944 20.5559 31.7383 21.464V23.661H38.3762V21.464ZM24.1279 16.3113V11.6624L17.7097 18.0806H22.3967H22.3938C22.8624 18.0835 23.3107 17.8961 23.6417 17.565C23.9698 17.2311 24.1514 16.78 24.1426 16.3113H24.1279ZM67.5462 38.2754C68.4836 38.2783 69.3448 37.7598 69.7813 36.9279C70.2149 36.0959 70.1504 35.0941 69.6114 34.3237C69.0754 33.5562 68.1556 33.1519 67.224 33.275C66.2954 33.398 65.5103 34.0278 65.1911 34.9096H55.0148V36.6642H65.1911C65.5631 37.6397 66.5034 38.2812 67.5462 38.2754ZM67.9973 53.596L64.5788 45.8712L64.5759 45.8742C64.4382 45.5549 64.1218 45.3498 63.7732 45.3498H55.0143V47.0957H63.2048L66.4065 54.3019C65.5336 55.1484 65.393 56.5018 66.0726 57.5094C66.7523 58.5171 68.0587 58.8951 69.1718 58.4029C70.2821 57.9108 70.8855 56.6951 70.5984 55.5116C70.3113 54.3311 69.2187 53.5226 68.003 53.5987L67.9973 53.596ZM60.22 65.6561L57.8941 56.8004C57.8004 56.4137 57.4547 56.1413 57.0563 56.1384H55.0145V57.893H56.3796L58.5326 66.0895C57.5367 66.7838 57.1793 68.0903 57.6861 69.1917C58.1899 70.2932 59.4144 70.8761 60.5891 70.5714C61.7608 70.2697 62.5517 69.1712 62.4609 67.9613C62.3701 66.7515 61.4269 65.7821 60.22 65.6561ZM64.576 25.4542L67.9945 17.7293H67.9974C69.2073 17.8084 70.2999 17.0117 70.5928 15.8341C70.8857 14.6565 70.294 13.4408 69.1867 12.9457C68.0794 12.4478 66.7759 12.8169 66.0933 13.8187C65.4108 14.8205 65.5426 16.168 66.4068 17.0175L63.2109 24.2237H55.0144V25.9696H63.7733C64.1219 25.9696 64.4383 25.7645 64.5759 25.4452L64.576 25.4542ZM57.8941 14.528L60.22 5.66404C61.4299 5.54394 62.3819 4.57435 62.4785 3.36159C62.5752 2.14884 61.7872 1.04152 60.6125 0.733984C59.4349 0.426401 58.2046 1.00349 57.6949 2.10782C57.1823 3.21221 57.5367 4.52455 58.5327 5.22167L56.3797 13.4324H55.0146V15.1871H57.0564C57.4548 15.1871 57.8004 14.9147 57.8941 14.528Z" fill="#F8F6FD"/>
<path fill-rule="evenodd" clip-rule="evenodd" d="M53.2596 13.3555V58.1567C53.2655 58.8509 52.996 59.5188 52.5068 60.0139C52.0176 60.509 51.3526 60.7872 50.6584 60.7902H19.4554C18.7582 60.7873 18.0933 60.509 17.604 60.0139C17.1148 59.5218 16.8424 58.8509 16.8453 58.1567V19.7913H22.4111H22.4082C23.3368 19.7971 24.2273 19.4339 24.8835 18.7806C25.5426 18.1274 25.9117 17.2398 25.9117 16.3112V10.7483H50.6587C52.0941 10.7542 53.257 11.9201 53.26 13.3584L53.2596 13.3555ZM28.0559 34.2945C28.0559 34.9185 28.3049 35.5131 28.7472 35.9525C29.1896 36.389 29.7901 36.6321 30.4111 36.6263H39.7265C41.0125 36.6263 42.0583 35.5834 42.0583 34.2945V25.987C42.07 24.8533 41.2703 23.8749 40.1601 23.6611V21.4113C40.2128 20.0346 39.7031 18.6958 38.7482 17.7028C37.7903 16.7068 36.472 16.1473 35.0953 16.1473C33.7156 16.1473 32.3973 16.7068 31.4424 17.7028C30.4845 18.6958 29.9748 20.0346 30.0275 21.4113V23.6611C28.9115 23.8573 28.0942 24.8269 28.0942 25.9635L28.0559 34.2945ZM22.3876 41.4714C22.3876 41.9547 22.7802 42.3502 23.2635 42.3502H29.3976C29.8838 42.3502 30.2764 41.9548 30.2764 41.4714C30.2764 40.988 29.8839 40.5926 29.3976 40.5926H23.2635C22.7802 40.5984 22.3906 40.988 22.3876 41.4714ZM22.3876 45.7394C22.3876 46.2228 22.7802 46.6153 23.2635 46.6153H38.8474C39.3307 46.6153 39.7262 46.2228 39.7262 45.7394C39.7262 45.2532 39.3308 44.8606 38.8474 44.8606H23.2635C22.7802 44.8665 22.3906 45.2561 22.3876 45.7394ZM22.3876 50.0045C22.3876 50.4908 22.7802 50.8834 23.2635 50.8834H33.4106C33.8265 50.8043 34.1253 50.444 34.1253 50.0192C34.1253 49.5974 33.8265 49.2371 33.4106 49.158H23.2635C22.7919 49.161 22.4082 49.5329 22.3876 50.0045ZM26.8871 54.2755V54.2726C26.8871 53.7863 26.4946 53.3938 26.0083 53.3938H23.2634C22.7801 53.3938 22.3876 53.7863 22.3876 54.2726C22.3876 54.7559 22.7801 55.1485 23.2634 55.1485H26.0229C26.2572 55.1485 26.4799 55.0577 26.6439 54.8936C26.808 54.7296 26.9017 54.504 26.9017 54.2726L26.8871 54.2755ZM38.9621 54.2755L38.9592 54.2726C38.9563 53.7892 38.5667 53.3996 38.0833 53.3938H29.3979C28.9145 53.3938 28.522 53.7863 28.522 54.2726C28.522 54.7559 28.9145 55.1485 29.3979 55.1485H38.0983C38.5817 55.1455 38.9713 54.7559 38.9771 54.2726L38.9621 54.2755ZM47.7061 50.0075L47.7032 50.0045C47.6885 49.5417 47.3136 49.1697 46.8507 49.158H36.8972C36.4138 49.158 36.0213 49.5505 36.0213 50.0368C36.0213 50.5201 36.4138 50.9127 36.8972 50.9127H46.8507C47.088 50.9127 47.3136 50.816 47.4776 50.6461C47.6417 50.4733 47.7295 50.2419 47.7178 50.0046L47.7061 50.0075ZM47.7061 45.7394H47.7032C47.7032 45.2561 47.3165 44.8665 46.8331 44.8606H42.1696C41.6862 44.8606 41.2937 45.2531 41.2937 45.7394C41.2937 46.2228 41.6862 46.6153 42.1696 46.6153H46.8507C47.0821 46.6153 47.3047 46.5245 47.4658 46.3575C47.6299 46.1935 47.7207 45.9709 47.7178 45.7395L47.7061 45.7394ZM47.7061 41.4714H47.7032C47.7032 40.991 47.3165 40.5984 46.8331 40.5926H32.7198C32.2365 40.5926 31.8439 40.988 31.8439 41.4714C31.8439 41.9548 32.2364 42.3502 32.7198 42.3502H46.8511C47.0825 42.3502 47.3052 42.2565 47.4663 42.0924C47.6303 41.9255 47.7211 41.7028 47.7182 41.4714L47.7061 41.4714ZM29.805 34.2945V25.987C29.805 25.6619 30.0657 25.4012 30.3879 25.4012H39.7266C39.8789 25.4012 40.0283 25.4627 40.1396 25.5711C40.248 25.6824 40.3095 25.8318 40.3095 25.987V34.2945C40.3095 34.6168 40.0488 34.8804 39.7266 34.8804H30.4112C30.253 34.8863 30.0977 34.8277 29.9835 34.7164C29.8693 34.605 29.805 34.4527 29.805 34.2945ZM31.3722 30.7178L33.1034 32.6599C33.4227 33.0173 33.9675 33.0495 34.3249 32.7361L38.6603 28.9104C38.8361 28.758 38.9415 28.5442 38.9562 28.3128C38.9737 28.0814 38.8947 27.8558 38.7423 27.68C38.423 27.3168 37.8694 27.2787 37.5062 27.598L33.8152 30.8613L32.661 29.549C32.3388 29.1887 31.7851 29.1623 31.4278 29.4845C31.0704 29.8068 31.0411 30.3604 31.3633 30.7178L31.3722 30.7178ZM38.3762 21.4639C38.4172 20.5559 38.0891 19.6712 37.4622 19.0121C36.8353 18.3559 35.9653 17.9839 35.0572 17.9839C34.1491 17.9839 33.2791 18.3559 32.6522 19.0121C32.0254 19.6712 31.6944 20.5559 31.7383 21.4639V23.6609H38.3762V21.4639ZM24.1279 16.3112V11.6624L17.7097 18.0806H22.3966H22.3937C22.8624 18.0835 23.3106 17.896 23.6416 17.565C23.9697 17.2311 24.1513 16.7799 24.1425 16.3112H24.1279Z" fill="#7AF0FF"/>
</svg>
