<svg width="65" height="65" viewBox="0 0 65 65" fill="none" xmlns="http://www.w3.org/2000/svg">
<path fill-rule="evenodd" clip-rule="evenodd" d="M30.8699 43.7967L29.0166 46.4446C28.7246 46.866 28.189 47.1275 27.6203 47.1275H3.24874V63.3752C3.24874 64.2689 3.97989 65 4.87351 65H30.8699V43.7967ZM34.1194 43.7967V65H60.1157C61.0094 65 61.7405 64.2689 61.7405 63.3752V47.1275H37.3689C36.8003 47.1275 36.2646 46.8686 35.9727 46.4446L34.1194 43.7967ZM55.2414 58.5009H50.3671C49.4735 58.5009 48.7423 59.2321 48.7423 60.1257C48.7423 61.0193 49.4735 61.7505 50.3671 61.7505H55.2414C56.135 61.7505 56.8662 61.0193 56.8662 60.1257C56.8662 59.2321 56.135 58.5009 55.2414 58.5009ZM21.1212 53.6266C21.1212 52.733 20.3901 52.0018 19.4965 52.0018H9.74783C8.8542 52.0018 8.12305 52.733 8.12305 53.6266V60.1257C8.12305 61.0193 8.8542 61.7505 9.74783 61.7505H19.4965C20.3901 61.7505 21.1212 61.0193 21.1212 60.1257V53.6266ZM17.8717 55.2514V58.5009H11.3726V55.2514H17.8717ZM55.2414 53.6266H47.1176C46.2239 53.6266 45.4928 54.3577 45.4928 55.2514C45.4928 56.145 46.2239 56.8761 47.1176 56.8761H55.2414C56.135 56.8761 56.8662 56.145 56.8662 55.2514C56.8662 54.3577 56.135 53.6266 55.2414 53.6266ZM58.491 34.1293H6.49828C5.92961 34.1293 5.39396 34.3883 5.10202 34.8123L0.227705 41.7656C-0.0642468 42.1871 -0.0820153 42.7253 0.212473 43.1619C0.504425 43.6011 1.04007 43.86 1.62654 43.86H27.6229C28.1916 43.86 28.7272 43.6011 29.0191 43.1771L32.4972 38.2063L35.9753 43.1771C36.2672 43.5985 36.8028 43.86 37.3715 43.86H63.3679C63.9518 43.86 64.49 43.5833 64.7819 43.1619C65.0739 42.7227 65.0586 42.187 64.7667 41.7656L59.8924 34.7941C59.6004 34.3726 59.0648 34.1111 58.4961 34.1111L58.491 34.1293ZM36.1653 1.32391C35.9876 0.722237 35.4672 0.267808 34.8503 0.171361C33.2915 -0.0571205 31.6972 -0.0571205 30.1384 0.171361C29.5038 0.267834 28.9859 0.707029 28.8234 1.32391L28.3842 2.80141C27.5236 3.06036 26.6934 3.40308 25.8988 3.8245L24.5508 3.07814C23.9974 2.76842 23.2992 2.81919 22.7966 3.20762C21.5298 4.14946 20.4076 5.2716 19.4658 6.5384C19.0926 7.04106 19.0444 7.72396 19.3363 8.29263L20.0827 9.64067C19.6612 10.4378 19.3185 11.2654 19.0596 12.1261L17.5821 12.5652C16.9804 12.743 16.526 13.2634 16.4295 13.8803C16.2011 15.439 16.2011 17.0334 16.4295 18.5921C16.526 19.2268 16.9652 19.7447 17.5821 19.9071L19.0596 20.3463C19.3185 21.2069 19.6613 22.0371 20.0827 22.8317L19.3363 24.1797C19.0266 24.7332 19.0774 25.4313 19.4658 25.934C20.4076 27.2008 21.5298 28.3229 22.7966 29.2648C23.2992 29.638 23.9821 29.6862 24.5508 29.3942L25.8988 28.6479C26.696 29.0693 27.5236 29.412 28.3842 29.671L28.8234 31.1485C29.0011 31.7501 29.5216 32.2046 30.1384 32.301C31.6972 32.5295 33.2915 32.5295 34.8503 32.301C35.485 32.2045 36.0028 31.7654 36.1653 31.1485L36.6045 29.671C37.4651 29.412 38.2953 29.0693 39.0899 28.6479L40.4379 29.3942C40.9914 29.704 41.6895 29.6532 42.1922 29.2648C43.459 28.3229 44.5811 27.2008 45.5229 25.934C45.8961 25.4313 45.9444 24.7484 45.6524 24.1797L44.9061 22.8317C45.3275 22.0345 45.6702 21.2069 45.9291 20.3463L47.4066 19.9071C48.0083 19.7294 48.4627 19.209 48.5592 18.5921C48.7877 17.0334 48.7877 15.439 48.5592 13.8803C48.4627 13.2456 48.0235 12.7277 47.4066 12.5652L45.9291 12.1261C45.6702 11.2654 45.3275 10.4353 44.9061 9.64067L45.6524 8.29263C45.9621 7.73919 45.9114 7.04104 45.5229 6.5384C44.5811 5.2716 43.459 4.14946 42.1922 3.20762C41.6895 2.83443 41.0066 2.78619 40.4379 3.07814L39.0899 3.8245C38.2927 3.40307 37.4651 3.06033 36.6045 2.80141L36.1653 1.32391ZM6.49828 25.34L6.02609 24.8678C5.39141 24.2331 4.3683 24.2331 3.71839 24.8678C3.08372 25.5025 3.08372 26.5256 3.71839 27.1755L6.96793 30.425C7.60261 31.0597 8.62572 31.0597 9.27563 30.425L12.5252 27.1755C13.1598 26.5408 13.1598 25.5177 12.5252 24.8678C11.8905 24.2331 10.8674 24.2331 10.2175 24.8678L9.74528 25.34V19.539C9.74528 19.0998 9.92299 18.6784 10.2327 18.3687C10.5424 18.059 10.9639 17.8812 11.4031 17.8812H12.9948C13.8884 17.8812 14.6196 17.1501 14.6196 16.2565C14.6196 15.8173 14.4419 15.4111 14.1474 15.1039C13.8377 14.7942 13.4315 14.6317 12.9948 14.6317H11.4031C10.1033 14.6317 8.85168 15.1522 7.92504 16.061C6.9984 16.9876 6.49576 18.2392 6.49576 19.5391V25.34L6.49828 25.34ZM55.2414 25.34V19.539C55.2414 19.0998 55.0637 18.6784 54.754 18.3687C54.4443 18.0589 54.0228 17.8812 53.5836 17.8812H51.9919C51.0983 17.8812 50.3671 17.1501 50.3671 16.2565C50.3671 15.8173 50.5448 15.4111 50.8393 15.1039C51.149 14.7942 51.5552 14.6317 51.9919 14.6317H53.5836C54.8834 14.6317 56.135 15.1522 57.0617 16.061C57.9883 16.9876 58.4909 18.2392 58.4909 19.5391V25.34L58.9631 24.8678C59.5978 24.2331 60.6209 24.2331 61.2708 24.8678C61.9055 25.5025 61.9055 26.5256 61.2708 27.1755L58.0213 30.425C57.3866 31.0597 56.3635 31.0597 55.7136 30.425L52.4641 27.1755C51.8294 26.5408 51.8294 25.5177 52.4641 24.8678C53.0987 24.2331 54.1218 24.2331 54.7717 24.8678L55.2439 25.34L55.2414 25.34ZM32.4946 8.13235C28.0113 8.13235 24.3708 11.7729 24.3708 16.2562C24.3708 20.7395 28.0113 24.3801 32.4946 24.3801C36.978 24.3801 40.6185 20.7395 40.6185 16.2562C40.6185 11.7729 36.978 8.13235 32.4946 8.13235ZM32.4946 11.3819C35.1907 11.3819 37.3689 13.5601 37.3689 16.2562C37.3689 18.9523 35.1907 21.1305 32.4946 21.1305C29.7985 21.1305 27.6203 18.9523 27.6203 16.2562C27.6203 13.5601 29.7985 11.3819 32.4946 11.3819Z" fill="#7AF0FF"/>
<path fill-rule="evenodd" clip-rule="evenodd" d="M36.1652 1.32391C35.9874 0.722237 35.467 0.267808 34.8501 0.171361C33.2914 -0.0571205 31.697 -0.0571205 30.1383 0.171361C29.5036 0.267834 28.9858 0.707029 28.8233 1.32391L28.3841 2.80141C27.5235 3.06036 26.6933 3.40308 25.8987 3.8245L24.5507 3.07814C23.9972 2.76842 23.2991 2.81919 22.7964 3.20762C21.5296 4.14947 20.4075 5.2716 19.4656 6.5384C19.0925 7.04106 19.0442 7.72396 19.3362 8.29263L20.0825 9.64067C19.6611 10.4379 19.3184 11.2654 19.0594 12.1261L17.5819 12.5652C16.9803 12.743 16.5258 13.2634 16.4294 13.8803C16.2009 15.439 16.2009 17.0334 16.4294 18.5921C16.5259 19.2268 16.9651 19.7447 17.5819 19.9071L19.0594 20.3463C19.3184 21.2069 19.6611 22.0371 20.0825 22.8317L19.3362 24.1798C19.0264 24.7332 19.0772 25.4313 19.4656 25.934C20.4075 27.2008 21.5296 28.3229 22.7964 29.2648C23.2991 29.638 23.982 29.6862 24.5507 29.3942L25.8987 28.6479C26.6959 29.0693 27.5235 29.412 28.3841 29.671L28.8233 31.1485C29.001 31.7501 29.5214 32.2046 30.1383 32.301C31.697 32.5295 33.2914 32.5295 34.8501 32.301C35.4848 32.2045 36.0027 31.7654 36.1652 31.1485L36.6044 29.671C37.465 29.412 38.2952 29.0693 39.0897 28.6479L40.4378 29.3942C40.9912 29.704 41.6894 29.6532 42.192 29.2648C43.4588 28.3229 44.5809 27.2008 45.5228 25.934C45.896 25.4313 45.9442 24.7484 45.6523 24.1798L44.9059 22.8317C45.3273 22.0345 45.6701 21.2069 45.929 20.3463L47.4065 19.9071C48.0082 19.7294 48.4626 19.209 48.559 18.5921C48.7875 17.0334 48.7875 15.439 48.559 13.8803C48.4626 13.2456 48.0234 12.7277 47.4065 12.5652L45.929 12.1261C45.67 11.2654 45.3273 10.4353 44.9059 9.64067L45.6523 8.29263C45.962 7.7392 45.9112 7.04104 45.5228 6.5384C44.5809 5.2716 43.4588 4.14947 42.192 3.20762C41.6893 2.83443 41.0064 2.78619 40.4378 3.07814L39.0897 3.8245C38.2926 3.40307 37.465 3.06034 36.6044 2.80141L36.1652 1.32391ZM32.4945 8.13235C28.0111 8.13235 24.3706 11.7729 24.3706 16.2562C24.3706 20.7395 28.0111 24.3801 32.4945 24.3801C36.9778 24.3801 40.6183 20.7395 40.6183 16.2562C40.6183 11.7729 36.9778 8.13235 32.4945 8.13235ZM32.4945 11.3819C35.1906 11.3819 37.3688 13.5601 37.3688 16.2562C37.3688 18.9523 35.1906 21.1305 32.4945 21.1305C29.7984 21.1305 27.6202 18.9523 27.6202 16.2562C27.6202 13.5601 29.7984 11.3819 32.4945 11.3819Z" fill="#F8F6FD"/>
</svg>
