<svg width="65" height="65" viewBox="0 0 65 65" fill="none" xmlns="http://www.w3.org/2000/svg">
<path d="M47.2977 29.5952C47.2977 30.9622 48.3229 32.1241 49.6215 32.1924C51.0569 32.2608 52.2188 31.0989 52.2188 29.7319V15.1735C52.2188 13.8065 51.1252 12.713 49.7582 12.713H35.3366C33.9696 12.713 32.8077 13.7382 32.7393 15.0368C32.671 16.4722 33.8329 17.6341 35.1999 17.6341H43.8119L29.5953 31.8507C28.4333 33.0126 26.8613 33.5594 25.2209 33.5594H4.98958C2.25561 33.5594 9.15527e-05 35.815 9.15527e-05 38.5489V60.0105C9.15527e-05 62.7445 2.25561 65 4.98958 65H26.4512C29.1852 65 31.4407 62.7445 31.4407 60.0105V39.7108C31.4407 38.0705 31.9875 36.4984 33.1494 35.3365L47.366 21.1199V29.5952H47.2977Z" fill="#7AF0FF"/>
<path d="M56.2514 0H19.5479C14.7635 0 10.8676 3.8959 10.8676 8.68034V28.5699H15.857V8.68034C15.857 6.62986 17.4974 4.98949 19.5479 4.98949H56.2514C58.3018 4.98949 59.9422 6.62986 59.9422 8.68034V45.3838C59.9422 47.4343 58.3018 49.0747 56.2514 49.0747H36.3618V54.0641H56.2514C61.0358 54.0641 64.9317 50.1682 64.9317 45.3838V8.68034C64.9317 3.8959 61.0358 0 56.2514 0Z" fill="#F8F6FD"/>
</svg>
