<svg width="65" height="65" viewBox="0 0 65 65" fill="none" xmlns="http://www.w3.org/2000/svg">
<path d="M60.7011 13.3345L56.5308 8.00581C56.0675 7.54244 55.6041 7.07908 54.909 7.07908C54.6774 7.07908 54.4457 7.07908 54.214 7.07908L51.2021 3.14045C48.6536 -0.103117 44.0199 -1.02985 40.5447 1.28698C38.2278 2.67709 37.0694 5.22561 37.0694 7.77413V18.6633H41.7031V8.00581C41.7031 6.84739 42.1664 5.92066 43.0932 5.22561C44.4833 4.29887 46.5684 4.53056 47.4952 5.92066L50.2754 9.6276L47.0318 12.1761C46.8001 12.6395 46.3367 13.3345 46.3367 14.0296C46.3367 14.7246 46.5684 15.4197 47.0318 15.8831L52.1288 20.5167C52.5922 20.9801 53.0556 21.2118 53.7506 21.2118H59.311C60.0061 23.5286 60.2378 26.0771 60.2378 28.1623C60.2378 29.5524 61.1645 30.4791 62.5546 30.4791C63.9447 30.4791 64.8714 29.5524 64.8714 28.1623C64.8714 25.8455 64.6398 18.6633 60.7011 13.3345Z" fill="#7AF0FF"/>
<path d="M13.901 65C17.7397 65 20.8515 50.478 20.8515 32.5643C20.8515 14.6505 17.7397 0.12854 13.901 0.12854C10.0624 0.12854 6.9505 14.6505 6.9505 32.5643C6.9505 50.478 10.0624 65 13.901 65Z" fill="#F8F6FD"/>
<path d="M5.79231 14.0296H1.15864C0.695271 16.8098 0.463587 20.0533 0.231903 23.2969H4.86558C5.09726 20.5167 5.32894 17.2731 5.79231 14.0296Z" fill="#F8F6FD"/>
<path d="M7.87771 4.76221H3.24404C2.78067 6.61568 2.08562 8.93251 1.62225 11.7127H6.25593C6.71929 9.1642 7.18266 6.84736 7.87771 4.76221Z" fill="#F8F6FD"/>
<path d="M4.86558 41.8316H0.231903C0.463587 45.0752 0.695271 48.3187 1.15864 51.099H5.79231C5.32894 47.8554 5.09726 44.6118 4.86558 41.8316Z" fill="#F8F6FD"/>
<path d="M4.40176 62.6831C5.09681 64.0732 6.02355 65 6.95028 65H10.1939C9.73049 64.3049 9.26712 63.6099 8.80375 62.6831H4.40176Z" fill="#F8F6FD"/>
<path d="M10.1939 0.12854H6.95028C6.02355 0.12854 5.09681 1.05527 4.40176 2.44538H8.80375C9.26712 1.51864 9.73049 0.823591 10.1939 0.12854Z" fill="#F8F6FD"/>
<path d="M6.25593 53.4158H1.62225C2.08562 56.196 2.78067 58.5128 3.47572 60.3663H8.1094C7.18266 58.2811 6.71929 55.9643 6.25593 53.4158Z" fill="#F8F6FD"/>
<path d="M4.63367 32.5643C4.63367 31.6375 4.63367 29.089 4.86536 25.6137H0.231683C-2.24403e-07 27.9306 0 30.2474 0 32.5643C0 34.8811 -2.24403e-07 37.1979 0.231683 39.5148H4.86536C4.63367 36.0395 4.63367 33.491 4.63367 32.5643Z" fill="#F8F6FD"/>
<path d="M23.1684 44.1484L27.802 48.7821V27.9306L23.1684 23.2969V44.1484Z" fill="#7AF0FF"/>
<path d="M50.9704 25.6137L46.3367 20.9801H25.4852L30.1189 25.6137H50.9704Z" fill="#7AF0FF"/>
<path d="M50.9704 27.9306H30.1189V48.7821C30.1189 50.1722 31.0456 51.099 32.4357 51.099H50.9704C52.3605 51.099 53.2872 50.1722 53.2872 48.7821V30.2474C53.2872 28.8573 52.3605 27.9306 50.9704 27.9306ZM41.7031 44.1484C39.1545 44.1484 37.0694 42.0633 37.0694 39.5148C37.0694 36.9663 39.1545 34.8811 41.7031 34.8811C44.2516 34.8811 46.3367 36.9663 46.3367 39.5148C46.3367 42.0633 44.2516 44.1484 41.7031 44.1484Z" fill="#7AF0FF"/>
</svg>
