<svg width="62" height="70" viewBox="0 0 62 70" fill="none" xmlns="http://www.w3.org/2000/svg">
<path fill-rule="evenodd" clip-rule="evenodd" d="M2.46125 47.3769V22.6231C1.95838 22.4642 1.49761 22.1944 1.11293 21.8336C0.728246 21.4728 0.429465 21.0303 0.238627 20.5386C0.0477887 20.047 -0.0302378 19.5187 0.0103034 18.9929C0.0508446 18.4671 0.208919 17.9571 0.472866 17.5005C0.736813 17.0439 1.0999 16.6524 1.53534 16.3549C1.97078 16.0573 2.46746 15.8613 2.98875 15.7814C3.51004 15.7014 4.04263 15.7394 4.54724 15.8928C5.05185 16.0461 5.51561 16.3107 5.90429 16.6672C13.0517 12.5416 20.197 8.41541 27.3403 4.28873C27.2257 3.77358 27.2284 3.23929 27.348 2.72529C27.4676 2.21129 27.7011 1.73072 28.0313 1.31905C28.3615 0.907386 28.7799 0.575135 29.2557 0.346831C29.7315 0.118527 30.2525 0 30.7802 0C31.3079 0 31.8289 0.118527 32.3047 0.346831C32.7805 0.575135 33.1989 0.907386 33.5291 1.31905C33.8593 1.73072 34.0928 2.21129 34.2124 2.72529C34.332 3.23929 34.3347 3.77358 34.2201 4.28873L55.6561 16.6672C56.0448 16.3107 56.5085 16.0461 57.0132 15.8928C57.5178 15.7394 58.0504 15.7014 58.5717 15.7814C59.0929 15.8613 59.5896 16.0573 60.0251 16.3549C60.4605 16.6524 60.8236 17.0439 61.0875 17.5005C61.3515 17.9571 61.5096 18.4671 61.5501 18.9929C61.5906 19.5187 61.5126 20.047 61.3218 20.5386C61.1309 21.0303 60.8322 21.4728 60.4475 21.8336C60.0628 22.1944 59.602 22.4642 59.0992 22.6231V47.3769C59.602 47.5358 60.0628 47.8056 60.4475 48.1664C60.8322 48.5272 61.1309 48.9697 61.3218 49.4614C61.5126 49.953 61.5906 50.4812 61.5501 51.0071C61.5096 51.5329 61.3515 52.0429 61.0875 52.4995C60.8236 52.9561 60.4605 53.3476 60.0251 53.6451C59.5896 53.9427 59.0929 54.1387 58.5717 54.2187C58.0504 54.2986 57.5178 54.2606 57.0132 54.1072C56.5085 53.9539 56.0448 53.6893 55.6561 53.3328C48.5087 57.4584 41.3634 61.5846 34.2201 65.7113C34.3347 66.2264 34.332 66.7607 34.2124 67.2747C34.0928 67.7887 33.8593 68.2693 33.5291 68.681C33.1989 69.0926 32.7805 69.4249 32.3047 69.6532C31.8289 69.8815 31.3079 70 30.7802 70C30.2525 70 29.7315 69.8815 29.2557 69.6532C28.7799 69.4249 28.3615 69.0926 28.0313 68.681C27.7011 68.2693 27.4676 67.7887 27.348 67.2747C27.2284 66.7607 27.2257 66.2264 27.3403 65.7113L5.90429 53.3328C5.51561 53.6893 5.05185 53.9539 4.54724 54.1072C4.04263 54.2606 3.51004 54.2986 2.98875 54.2187C2.46746 54.1387 1.97078 53.9427 1.53534 53.6451C1.0999 53.3476 0.736813 52.9561 0.472866 52.4995C0.208919 52.0429 0.0508446 51.5329 0.0103034 51.0071C-0.0302378 50.4812 0.0477887 49.953 0.238627 49.4614C0.429465 48.9697 0.728246 48.5272 1.11293 48.1664C1.49761 47.8056 1.95838 47.5358 2.46125 47.3769ZM4.58214 22.6231V47.3769C5.42272 47.6429 6.13319 48.2141 6.57355 48.978C7.01391 49.7418 7.15222 50.6428 6.96124 51.5036L28.3996 63.8789C29.0491 63.2828 29.8986 62.9521 30.7802 62.9521C31.6618 62.9521 32.5113 63.2828 33.1609 63.8789C40.3083 59.7523 47.4544 55.6271 54.5992 51.5036C54.4082 50.6428 54.5465 49.7418 54.9869 48.978C55.4272 48.2141 56.1377 47.6429 56.9783 47.3769V22.6231C56.1377 22.3571 55.4272 21.7859 54.9869 21.022C54.5465 20.2582 54.4082 19.3572 54.5992 18.4964L33.1609 6.12108C32.5113 6.71719 31.6618 7.04794 30.7802 7.04794C29.8986 7.04794 29.0491 6.71719 28.3996 6.12108C21.2522 10.2478 14.106 14.3729 6.96124 18.4964C7.15222 19.3572 7.01391 20.2582 6.57355 21.022C6.13319 21.7859 5.42272 22.3571 4.58214 22.6231ZM15.5 24.9563L30.7802 33.7805L46.0604 24.9586L30.7802 16.1368L15.5 24.9586V24.9563ZM29.7194 53.2512V35.6066L14.4477 26.7902V44.4339L29.7194 53.2512ZM31.841 35.6066V53.2512L47.1127 44.4339V26.7902L31.841 35.6066Z" fill="#F8F6FD"/>
<path fill-rule="evenodd" clip-rule="evenodd" d="M15.5 24.9563L30.7802 33.7805L46.0604 24.9586L30.7802 16.1368L15.5 24.9586V24.9563ZM29.7194 53.2512V35.6066L14.4477 26.7902V44.4339L29.7194 53.2512ZM31.841 35.6066V53.2512L47.1127 44.4339V26.7902L31.841 35.6066Z" fill="#7AF0FF"/>
</svg>
